<svg xmlns="http://www.w3.org/2000/svg" xmlns:xlink="http://www.w3.org/1999/xlink" width="225" height="147" viewBox="0 0 225 147"><defs><path id="6i3ra" d="M153.882 158.824l.362 20.364c.063 3.556-2.795 6.516-6.35 6.579-3.556.064-6.517-2.794-6.58-6.35l-.361-20.363c-.064-3.556 2.794-6.517 6.35-6.58 3.555-.063 6.516 2.794 6.579 6.35z"/><path id="6i3rb" d="M175.808 158.786l.361 20.364c.064 3.556-2.794 6.516-6.349 6.579-3.556.064-6.517-2.794-6.58-6.35l-.36-20.363c-.065-3.556 2.793-6.517 6.348-6.58h.001c3.555-.063 6.516 2.794 6.58 6.35z"/><path id="6i3rc" d="M183.808 97.399l-28.563 10.157.273 13.628 32.623-11.601c3.35-1.191 5.117-4.908 3.925-8.258-1.19-3.351-4.907-5.117-8.258-3.926z"/><path id="6i3rd" d="M120.755 119.82c-3.35 1.191-5.116 4.908-3.925 8.258 1.191 3.351 4.907 5.118 8.258 3.926l30.43-10.82-.274-13.628z"/><path id="6i3re" d="M167.472 151.97c-3.351 1.191-5.117 4.908-3.926 8.258 1.192 3.351 4.908 5.118 8.259 3.926l7.474-2.658-.274-13.627z"/><path id="6i3rf" d="M186.662 145.146l-7.657 2.723.274 13.627 11.716-4.166c3.35-1.19 5.117-4.908 3.925-8.258-1.191-3.35-4.907-5.117-8.258-3.926z"/><path id="6i3rg" d="M120.755 95.957c-3.35 1.191-5.116 4.908-3.925 8.258 1.191 3.351 4.907 5.118 8.258 3.926l8.176-2.907-.275-13.627z"/><path id="6i3rh" d="M139.946 89.133l-6.956 2.473.274 13.628 11.015-3.917c3.35-1.19 5.117-4.908 3.925-8.258-1.191-3.35-4.907-5.117-8.258-3.926z"/><path id="6i3ri" d="M182.838 120.525l-27.519 9.786v13.726l31.852-11.328c3.35-1.19 5.117-4.908 3.925-8.258-1.19-3.35-4.907-5.117-8.258-3.926z"/><path id="6i3rj" d="M121.609 142.163c-3.351 1.19-5.117 4.908-3.926 8.258 1.192 3.35 4.908 5.118 8.259 3.926l29.378-10.31v-13.726z"/><path id="6i3rk" d="M144.397 164.633l-23.287-10.488c-3.242-1.46-4.7-5.308-3.24-8.55 1.46-3.243 5.308-4.7 8.55-3.24l23.287 10.487c3.243 1.46 4.701 5.308 3.241 8.551-1.46 3.242-5.309 4.7-8.55 3.24z"/><path id="6i3rl" d="M223.534 209.1l-10.99 24.897h4.374l8.643-20.416 8.679 20.416h4.48L227.839 209.1z"/><path id="6i3rm" d="M109.232 209.1h-4.944l-11.88 12.874V209.1h-4.196v24.898h4.197v-6.332l4.232-4.659 8.18 10.991h5.05l-10.278-14.263z"/><path id="6i3rn" d="M150.599 217.6c0-5.406-3.664-8.5-10.03-8.5h-10.101v24.897h4.197v-7.504h5.904c.39 0 .782 0 1.138-.036l4.553 7.54h4.766l-5.584-8.323c3.307-1.28 5.157-4.09 5.157-8.074zm-10.03 5.122h-5.904v-9.852h5.904c3.84 0 6.046 1.565 6.046 4.837 0 3.379-2.205 5.015-6.046 5.015z"/><path id="6i3ro" d="M180.655 209.1l-10.99 24.897h4.374l8.643-20.416 8.68 20.416h4.48L184.96 209.1z"/><path id="6i3rp" d="M263.035 230.191V209.1h-4.197v24.898h14.974v-3.806z"/><path id="6i3rq" d="M85.791 229.338c0 2.978-2.072 5.052-5.051 5.052-2.928 0-5-2.074-5-5.052 0-2.926 2.072-4.948 5-4.948 2.978 0 5.051 2.022 5.051 4.948z"/><path id="6i3rr" d="M62.905 220.86v2.769h13.1c.56-9.357-4.304-15.346-13.241-15.346-8.047 0-13.427 5.193-13.427 13.147 0 7.813 5.193 12.96 13.708 12.96 4.819 0 8.656-1.638 11.323-4.586l-4.303-4.22-.025-.025a.912.912 0 0 0-.633-.258.898.898 0 0 0-.601.238c-.017.012-.034.023-.05.036-1.51 1.177-3.177 1.844-4.916 1.844-2.432 0-4.211-1.357-4.96-3.79 0 0-.565-1.555-.186-4.632.468-2.573 1.965-4.304 4.164-4.304 2.293 0 3.883 1.778 3.836 4.304h-1.948c-.928.061-1.816.665-1.841 1.862z"/></defs><g><g transform="translate(-49 -88)"><use fill="#fff" xlink:href="#6i3ra"/></g><g transform="translate(-49 -88)"><use fill="#d9d9d9" xlink:href="#6i3rb"/></g><g transform="translate(-49 -88)"><use fill="#fff" xlink:href="#6i3rc"/></g><g transform="translate(-49 -88)"><use fill="#9f9f9f" xlink:href="#6i3rd"/></g><g transform="translate(-49 -88)"><use fill="#9f9f9f" xlink:href="#6i3re"/></g><g transform="translate(-49 -88)"><use fill="#fff" xlink:href="#6i3rf"/></g><g transform="translate(-49 -88)"><use fill="#9f9f9f" xlink:href="#6i3rg"/></g><g transform="translate(-49 -88)"><use fill="#fff" xlink:href="#6i3rh"/></g><g transform="translate(-49 -88)"><use fill="#fff" xlink:href="#6i3ri"/></g><g transform="translate(-49 -88)"><use fill="#9f9f9f" xlink:href="#6i3rj"/></g><g transform="translate(-49 -88)"><use fill="#d9d9d9" xlink:href="#6i3rk"/></g><g transform="translate(-49 -88)"><use fill="#fff" xlink:href="#6i3rl"/></g><g transform="translate(-49 -88)"><use fill="#fff" xlink:href="#6i3rm"/></g><g transform="translate(-49 -88)"><use fill="#fff" xlink:href="#6i3rn"/></g><g transform="translate(-49 -88)"><use fill="#fff" xlink:href="#6i3ro"/></g><g transform="translate(-49 -88)"><use fill="#fff" xlink:href="#6i3rp"/></g><g transform="translate(-49 -88)"><use fill="#9f9f9f" xlink:href="#6i3rq"/></g><g transform="translate(-49 -88)"><use fill="#9f9f9f" xlink:href="#6i3rr"/></g></g></svg>